<?xml version="1.0" standalone="no"?>
<!DOCTYPE svg PUBLIC "-//W3C//DTD SVG 20010904//EN"
 "http://www.w3.org/TR/2001/REC-SVG-20010904/DTD/svg10.dtd">
<svg version="1.0" xmlns="http://www.w3.org/2000/svg"
 width="700.000000pt" height="700.000000pt" viewBox="0 0 700.000000 700.000000"
 preserveAspectRatio="xMidYMid meet">
<metadata>
Created by potrace 1.11, written by Peter Selinger 2001-2013
</metadata>
<g transform="translate(0.000000,700.000000) scale(0.100000,-0.100000)"
fill="#000000" stroke="none">
<path d="M3350 6788 c-136 -19 -307 -91 -425 -178 -62 -46 -181 -169 -222
-230 -95 -140 -142 -279 -169 -493 l-5 -48 -38 34 c-58 53 -156 116 -235 153
-483 223 -1059 11 -1282 -471 -118 -255 -118 -555 0 -811 37 -79 100 -177 153
-235 l34 -38 -48 -5 c-182 -23 -259 -44 -383 -107 -252 -126 -441 -368 -507
-649 -17 -70 -18 -165 -18 -1395 l0 -1320 23 -84 c45 -163 123 -301 240 -423
115 -120 249 -200 427 -255 l90 -28 2475 -3 c1759 -2 2494 0 2539 8 186 32
367 121 501 247 128 121 210 254 267 438 l28 90 0 1330 0 1330 -23 84 c-49
178 -125 314 -246 440 -174 179 -349 261 -639 297 l-48 5 34 38 c88 98 169
247 206 380 94 338 0 695 -248 942 -164 164 -348 251 -588 279 -249 30 -543
-65 -733 -237 -37 -33 -38 -33 -44 -11 -3 13 -6 40 -6 60 0 47 -23 157 -48
228 -52 148 -132 270 -255 386 -218 205 -505 295 -807 252z m291 -454 c271
-80 428 -349 364 -622 -18 -75 -44 -129 -96 -199 l-39 -52 0 -533 0 -533 380
380 c334 334 380 384 380 410 0 45 26 139 57 203 37 77 150 190 225 225 217
102 441 66 603 -97 203 -204 208 -508 14 -720 -84 -91 -239 -166 -344 -166
-26 0 -76 -46 -410 -380 l-380 -380 532 0 533 0 47 36 c300 229 721 94 827
-265 9 -30 16 -74 16 -98 l0 -43 -2850 0 -2850 0 0 43 c0 157 125 343 282 420
190 92 385 73 555 -54 l52 -39 533 0 533 0 -380 380 c-334 334 -384 380 -410
380 -105 0 -260 75 -344 166 -194 212 -189 516 14 720 162 163 386 199 603 97
75 -35 188 -148 225 -225 31 -64 57 -158 57 -203 0 -26 46 -76 380 -410 l380
-380 0 533 0 533 -39 52 c-74 99 -111 204 -111 315 0 293 225 521 516 522 54
0 112 -6 145 -16z m-1626 -3049 c346 -97 599 -398 631 -751 l7 -74 -250 0
-249 0 -17 72 c-41 178 -193 290 -372 276 -125 -11 -232 -83 -287 -196 -30
-61 -33 -74 -32 -157 1 -109 21 -161 91 -236 72 -77 114 -94 312 -123 126 -19
230 -47 316 -86 306 -137 502 -465 482 -805 -8 -124 -28 -206 -78 -313 -257
-555 -975 -672 -1395 -229 -81 84 -141 179 -179 282 -31 80 -55 197 -55 261
l0 44 249 0 248 0 7 -52 c16 -116 93 -218 206 -272 56 -26 76 -31 145 -31 98
1 169 29 243 99 157 147 140 414 -33 530 -60 41 -114 59 -265 86 -282 52 -433
122 -568 264 -118 124 -195 281 -222 449 -15 93 -8 254 15 347 23 89 105 252
165 327 123 154 317 266 530 307 54 10 296 -3 355 -19z m1314 -827 c96 -466
176 -846 177 -845 1 1 79 376 173 832 95 457 174 838 177 848 5 16 26 17 255
17 137 0 249 -2 249 -3 0 -2 -68 -330 -151 -728 -82 -398 -192 -929 -244
-1179 -52 -250 -120 -580 -152 -733 l-57 -277 -251 0 -251 0 -36 178 c-20 97
-104 503 -187 902 -230 1110 -371 1793 -378 1818 l-5 22 253 -2 252 -3 176
-847z m2119 823 c82 -24 189 -74 254 -119 205 -141 347 -386 365 -629 l6 -73
-250 0 -250 0 -7 49 c-9 67 -58 162 -108 206 -22 21 -66 49 -97 64 -47 22 -70
26 -146 26 -79 0 -97 -4 -149 -29 -76 -37 -131 -95 -170 -176 l-31 -65 0 -685
0 -685 27 -57 c37 -78 98 -142 175 -180 184 -91 416 7 485 205 14 43 17 87 18
260 l0 207 -175 0 -175 0 0 250 0 250 426 0 425 0 -3 -507 -3 -508 -29 -85
c-51 -153 -109 -247 -218 -358 -223 -225 -558 -307 -858 -210 -284 92 -490
308 -572 603 -22 79 -22 91 -26 783 -2 612 -1 715 13 789 33 174 101 307 224
436 131 137 259 210 446 253 89 20 309 12 403 -15z"/>
</g>
</svg>
